<?xml version="1.0" encoding="utf-8"?>
<svg width="463" height="481" viewBox="0 0 463 481" xmlns="http://www.w3.org/2000/svg">
<rect id="frame" x="0" y="0" width="463" height="481" fill="#f7f7f7" stroke="none" stroke-width="0"/>

<!-- Association CREER -->
<g>
	<line x1="134" y1="85" x2="260" y2="85" stroke="#d6604d" stroke-width="2"/>
	<text x="205" y="102" fill="#2166ac" font-family="Verdana" font-size="12">1,1</text>
	<line x1="260" y1="237" x2="260" y2="85" stroke="#d6604d" stroke-width="2"/>
	<text x="265" y="178" fill="#2166ac" font-family="Verdana" font-size="12">0,N</text>
	<g>
		<path d="M274 60 a14 14 90 0 1 14 14 V85 h-56 V74 a14 14 90 0 1 14 -14" fill="#f4a582" stroke="#f4a582" stroke-width="0"/>
		<path d="M288 85 v11 a14 14 90 0 1 -14 14 H246 a14 14 90 0 1 -14 -14 V85 H56" fill="#fddbc7" stroke="#fddbc7" stroke-width="0"/>
		<rect x="232" y="60" width="56" height="50" fill="none" rx="14" stroke="#d6604d" stroke-width="2"/>
		<line x1="232" y1="85" x2="288" y2="85" stroke="#d6604d" stroke-width="1"/>
		<text x="240" y="77.75" fill="#000" font-family="Verdana" font-size="12">CREER</text>
	</g>
</g>

<!-- Association AVOIR2 -->
<g>
	<line x1="134" y1="85" x2="36" y2="237" stroke="#d6604d" stroke-width="2"/>
	<text x="85.04" y="178" fill="#2166ac" font-family="Verdana" font-size="12">1,1</text>
	<line x1="134" y1="338" x2="36" y2="237" stroke="#d6604d" stroke-width="2"/>
	<text x="81" y="321.28" fill="#2166ac" font-family="Verdana" font-size="12">0,N</text>
	<g>
		<path d="M49 212 a14 14 90 0 1 14 14 V237 h-54 V226 a14 14 90 0 1 14 -14" fill="#f4a582" stroke="#f4a582" stroke-width="0"/>
		<path d="M63 237 v11 a14 14 90 0 1 -14 14 H23 a14 14 90 0 1 -14 -14 V237 H54" fill="#fddbc7" stroke="#fddbc7" stroke-width="0"/>
		<rect x="9" y="212" width="54" height="50" fill="none" rx="14" stroke="#d6604d" stroke-width="2"/>
		<line x1="9" y1="237" x2="63" y2="237" stroke="#d6604d" stroke-width="1"/>
		<text x="16" y="229.75" fill="#000" font-family="Verdana" font-size="12">AVOIR</text>
	</g>
</g>

<!-- Association JOUER -->
<g>
	<line x1="134" y1="85" x2="134" y2="237" stroke="#d6604d" stroke-width="2"/>
	<text x="139" y="178" fill="#2166ac" font-family="Verdana" font-size="12">1,N</text>
	<line x1="260" y1="237" x2="134" y2="237" stroke="#d6604d" stroke-width="2"/>
	<text x="197" y="254" fill="#2166ac" font-family="Verdana" font-size="12">0,N</text>
	<g>
		<path d="M148 212 a14 14 90 0 1 14 14 V237 h-56 V226 a14 14 90 0 1 14 -14" fill="#f4a582" stroke="#f4a582" stroke-width="0"/>
		<path d="M162 237 v11 a14 14 90 0 1 -14 14 H120 a14 14 90 0 1 -14 -14 V237 H56" fill="#fddbc7" stroke="#fddbc7" stroke-width="0"/>
		<rect x="106" y="212" width="56" height="50" fill="none" rx="14" stroke="#d6604d" stroke-width="2"/>
		<line x1="106" y1="237" x2="162" y2="237" stroke="#d6604d" stroke-width="1"/>
		<text x="114" y="229.75" fill="#000" font-family="Verdana" font-size="12">JOUER</text>
	</g>
</g>

<!-- Association AJOUTER_EN_AMI -->
<g>
	<path d="M260 237 C285.67 203.67 329.33 203.67 391 237" fill="none" stroke="#d6604d" stroke-width="2"/>
	<text x="301" y="231" fill="#2166ac" font-family="Verdana" font-size="12">0,N</text>
	<path d="M260 237 C285.67 270.33 329.33 270.33 391 237" fill="none" stroke="#d6604d" stroke-width="2"/>
	<text x="301" y="252" fill="#2166ac" font-family="Verdana" font-size="12">0,N</text>
	<g>
		<path d="M440 212 a14 14 90 0 1 14 14 V237 h-126 V226 a14 14 90 0 1 14 -14" fill="#f4a582" stroke="#f4a582" stroke-width="0"/>
		<path d="M454 237 v11 a14 14 90 0 1 -14 14 H342 a14 14 90 0 1 -14 -14 V237 H126" fill="#fddbc7" stroke="#fddbc7" stroke-width="0"/>
		<rect x="328" y="212" width="126" height="50" fill="none" rx="14" stroke="#d6604d" stroke-width="2"/>
		<line x1="328" y1="237" x2="454" y2="237" stroke="#d6604d" stroke-width="1"/>
		<text x="336" y="229.75" fill="#000" font-family="Verdana" font-size="12">AJOUTER_EN_AMI</text>
	</g>
</g>

<!-- Association MAITRISER -->
<g>
	<line x1="134" y1="338" x2="260" y2="338" stroke="#d6604d" stroke-width="2"/>
	<text x="165" y="330" fill="#2166ac" font-family="Verdana" font-size="12">0,N</text>
	<line x1="260" y1="237" x2="260" y2="338" stroke="#d6604d" stroke-width="2"/>
	<text x="233" y="305" fill="#2166ac" font-family="Verdana" font-size="12">0,N</text>
	<g>
		<path d="M288 313 a14 14 90 0 1 14 14 V338 h-84 V327 a14 14 90 0 1 14 -14" fill="#f4a582" stroke="#f4a582" stroke-width="0"/>
		<path d="M302 338 v11 a14 14 90 0 1 -14 14 H232 a14 14 90 0 1 -14 -14 V338 H84" fill="#fddbc7" stroke="#fddbc7" stroke-width="0"/>
		<rect x="218" y="313" width="84" height="50" fill="none" rx="14" stroke="#d6604d" stroke-width="2"/>
		<line x1="218" y1="338" x2="302" y2="338" stroke="#d6604d" stroke-width="1"/>
		<text x="226" y="330.75" fill="#000" font-family="Verdana" font-size="12">MAITRISER</text>
	</g>
</g>

<!-- Association AVOIR -->
<g>
	<line x1="391" y1="430" x2="391" y2="338" stroke="#d6604d" stroke-width="2"/>
	<text x="396" y="380" fill="#2166ac" font-family="Verdana" font-size="12">0,1</text>
	<path d="M260 237 C261.35 286.94 305.02 320.61 391 338" fill="none" stroke="#d6604d" stroke-width="2"/>
	<text x="301" y="298.79" fill="#2166ac" font-family="Verdana" font-size="12">0,1</text>
	<g>
		<path d="M404 313 a14 14 90 0 1 14 14 V338 h-54 V327 a14 14 90 0 1 14 -14" fill="#f4a582" stroke="#f4a582" stroke-width="0"/>
		<path d="M418 338 v11 a14 14 90 0 1 -14 14 H378 a14 14 90 0 1 -14 -14 V338 H54" fill="#fddbc7" stroke="#fddbc7" stroke-width="0"/>
		<rect x="364" y="313" width="54" height="50" fill="none" rx="14" stroke="#d6604d" stroke-width="2"/>
		<line x1="364" y1="338" x2="418" y2="338" stroke="#d6604d" stroke-width="1"/>
		<text x="371" y="330.75" fill="#000" font-family="Verdana" font-size="12">AVOIR</text>
	</g>
</g>

<!-- Association DETENIR -->
<g>
	<line x1="391" y1="430" x2="260" y2="430" stroke="#d6604d" stroke-width="2"/>
	<text x="338" y="447" fill="#2166ac" font-family="Verdana" font-size="12">0,N</text>
	<line x1="134" y1="338" x2="260" y2="430" stroke="#d6604d" stroke-width="2"/>
	<text x="165" y="354.51" fill="#2166ac" font-family="Verdana" font-size="12">1,N</text>
	<g>
		<path d="M281 405 a14 14 90 0 1 14 14 V430 h-70 V419 a14 14 90 0 1 14 -14" fill="#f4a582" stroke="#f4a582" stroke-width="0"/>
		<path d="M295 430 v11 a14 14 90 0 1 -14 14 H239 a14 14 90 0 1 -14 -14 V430 H70" fill="#fddbc7" stroke="#fddbc7" stroke-width="0"/>
		<rect x="225" y="405" width="70" height="50" fill="none" rx="14" stroke="#d6604d" stroke-width="2"/>
		<line x1="225" y1="430" x2="295" y2="430" stroke="#d6604d" stroke-width="1"/>
		<text x="233" y="422.75" fill="#000" font-family="Verdana" font-size="12">DETENIR</text>
	</g>
</g>

<!-- Entity EVENT -->
<g>
	<g>
		<rect x="68" y="9" width="132" height="25" fill="#92c5de" stroke="#92c5de" stroke-width="0" opacity="1"/>
		<rect x="68" y="34" width="132" height="127" fill="#d1e5f0" stroke="#d1e5f0" stroke-width="0" opacity="1"/>
		<rect x="68" y="9" width="132" height="152" fill="none" stroke="#4393c3" stroke-width="2" opacity="1"/>
		<line x1="68" y1="34" x2="200" y2="34" stroke="#4393c3" stroke-width="1"/>
	</g>
	<text x="114" y="26.75" fill="#000" font-family="Verdana" font-size="12">EVENT</text>
	<text x="73" y="51.8" fill="#000" font-family="Verdana" font-size="12">ref</text>
	<line x1="73" y1="54" x2="90" y2="54" stroke="#000" stroke-width="1"/>
	<text x="73" y="68.8" fill="#000" font-family="Verdana" font-size="12">date</text>
	<text x="73" y="85.8" fill="#000" font-family="Verdana" font-size="12">location</text>
	<text x="73" y="102.8" fill="#000" font-family="Verdana" font-size="12">duration</text>
	<text x="73" y="119.8" fill="#000" font-family="Verdana" font-size="12">nb_team</text>
	<text x="73" y="136.8" fill="#000" font-family="Verdana" font-size="12">nb_max_participant</text>
	<text x="73" y="153.8" fill="#000" font-family="Verdana" font-size="12">status</text>
</g>

<!-- Entity USER -->
<g>
	<g>
		<rect x="224" y="186" width="72" height="25" fill="#92c5de" stroke="#92c5de" stroke-width="0" opacity="1"/>
		<rect x="224" y="211" width="72" height="77" fill="#d1e5f0" stroke="#d1e5f0" stroke-width="0" opacity="1"/>
		<rect x="224" y="186" width="72" height="102" fill="none" stroke="#4393c3" stroke-width="2" opacity="1"/>
		<line x1="224" y1="211" x2="296" y2="211" stroke="#4393c3" stroke-width="1"/>
	</g>
	<text x="243" y="203.75" fill="#000" font-family="Verdana" font-size="12">USER</text>
	<text x="229" y="228.8" fill="#000" font-family="Verdana" font-size="12">ref</text>
	<line x1="229" y1="231" x2="246" y2="231" stroke="#000" stroke-width="1"/>
	<text x="229" y="245.8" fill="#000" font-family="Verdana" font-size="12">username</text>
	<text x="229" y="262.8" fill="#000" font-family="Verdana" font-size="12">email</text>
	<text x="229" y="279.8" fill="#000" font-family="Verdana" font-size="12">password</text>
</g>

<!-- Entity SPORT -->
<g>
	<g>
		<rect x="108" y="304" width="52" height="25" fill="#92c5de" stroke="#92c5de" stroke-width="0" opacity="1"/>
		<rect x="108" y="329" width="52" height="43" fill="#d1e5f0" stroke="#d1e5f0" stroke-width="0" opacity="1"/>
		<rect x="108" y="304" width="52" height="68" fill="none" stroke="#4393c3" stroke-width="2" opacity="1"/>
		<line x1="108" y1="329" x2="160" y2="329" stroke="#4393c3" stroke-width="1"/>
	</g>
	<text x="113" y="321.75" fill="#000" font-family="Verdana" font-size="12">SPORT</text>
	<text x="113" y="346.8" fill="#000" font-family="Verdana" font-size="12">ref</text>
	<line x1="113" y1="349" x2="130" y2="349" stroke="#000" stroke-width="1"/>
	<text x="113" y="363.8" fill="#000" font-family="Verdana" font-size="12">name</text>
</g>

<!-- Entity IMAGE -->
<g>
	<g>
		<rect x="365" y="388" width="52" height="25" fill="#92c5de" stroke="#92c5de" stroke-width="0" opacity="1"/>
		<rect x="365" y="413" width="52" height="59" fill="#d1e5f0" stroke="#d1e5f0" stroke-width="0" opacity="1"/>
		<rect x="365" y="388" width="52" height="84" fill="none" stroke="#4393c3" stroke-width="2" opacity="1"/>
		<line x1="365" y1="413" x2="417" y2="413" stroke="#4393c3" stroke-width="1"/>
	</g>
	<text x="371" y="405.75" fill="#000" font-family="Verdana" font-size="12">IMAGE</text>
	<text x="370" y="430.8" fill="#000" font-family="Verdana" font-size="12">ref</text>
	<line x1="370" y1="433" x2="387" y2="433" stroke="#000" stroke-width="1"/>
	<text x="370" y="447.8" fill="#000" font-family="Verdana" font-size="12">title</text>
	<text x="370" y="464.8" fill="#000" font-family="Verdana" font-size="12">url</text>
</g>
</svg>