<?xml version="1.0" encoding="utf-8"?>
<svg width="682" height="512" viewBox="0 0 682 512" xmlns="http://www.w3.org/2000/svg">
<rect id="frame" x="0" y="0" width="682" height="512" fill="#f7f7f7" stroke="none" stroke-width="0"/>

<!-- Association JOUER -->
<g>
	<line x1="374" y1="90" x2="233" y2="90" stroke="#4393c3" stroke-width="1.5"/>
	<text x="274" y="107" fill="#b2182b" font-family="Arial" font-size="12">1,N</text>
	<line x1="233" y1="251" x2="233" y2="90" stroke="#4393c3" stroke-width="1.5"/>
	<text x="239" y="188" fill="#b2182b" font-family="Arial" font-size="12">0,N</text>
	<g>
		<path d="M254 62 a14 14 90 0 1 14 14 V89 h-70 V76 a14 14 90 0 1 14 -14" fill="#92c5de" stroke="#92c5de" stroke-width="0"/>
		<path d="M268 89 v15 a14 14 90 0 1 -14 14 H212 a14 14 90 0 1 -14 -14 V89 H70" fill="#d1e5f0" stroke="#d1e5f0" stroke-width="0"/>
		<rect x="198" y="62" width="70" height="56" fill="none" rx="14" stroke="#4393c3" stroke-width="3"/>
		<line x1="198" y1="89" x2="268" y2="89" stroke="#4393c3" stroke-width="1.5"/>
		<text x="208" y="82.3" fill="#000" font-family="Arial Black" font-size="13">JOUER</text>
	</g>
</g>

<!-- Association AVOIR2 -->
<g>
	<line x1="374" y1="90" x2="591" y2="90" stroke="#4393c3" stroke-width="1.5"/>
	<text x="453" y="107" fill="#b2182b" font-family="Arial" font-size="12">1,1</text>
	<line x1="591" y1="251" x2="591" y2="90" stroke="#4393c3" stroke-width="1.5"/>
	<text x="597" y="206" fill="#b2182b" font-family="Arial" font-size="12">0,N</text>
	<g>
		<path d="M610 62 a14 14 90 0 1 14 14 V89 h-66 V76 a14 14 90 0 1 14 -14" fill="#92c5de" stroke="#92c5de" stroke-width="0"/>
		<path d="M624 89 v15 a14 14 90 0 1 -14 14 H572 a14 14 90 0 1 -14 -14 V89 H66" fill="#d1e5f0" stroke="#d1e5f0" stroke-width="0"/>
		<rect x="558" y="62" width="66" height="56" fill="none" rx="14" stroke="#4393c3" stroke-width="3"/>
		<line x1="558" y1="89" x2="624" y2="89" stroke="#4393c3" stroke-width="1.5"/>
		<text x="568" y="82.3" fill="#000" font-family="Arial Black" font-size="13">AVOIR</text>
	</g>
</g>

<!-- Association AJOUTER_EN_AMI -->
<g>
	<path d="M233 251 C206 285.67 156.33 285.67 84 251" fill="none" stroke="#4393c3" stroke-width="1.5"/>
	<text x="165" y="267" fill="#b2182b" font-family="Arial" font-size="12">0,N</text>
	<path d="M233 251 C206 216.33 156.33 216.33 84 251" fill="none" stroke="#4393c3" stroke-width="1.5"/>
	<text x="165" y="243" fill="#b2182b" font-family="Arial" font-size="12">0,N</text>
	<g>
		<path d="M145 223 a14 14 90 0 1 14 14 V250 h-150 V237 a14 14 90 0 1 14 -14" fill="#92c5de" stroke="#92c5de" stroke-width="0"/>
		<path d="M159 250 v15 a14 14 90 0 1 -14 14 H23 a14 14 90 0 1 -14 -14 V250 H150" fill="#d1e5f0" stroke="#d1e5f0" stroke-width="0"/>
		<rect x="9" y="223" width="150" height="56" fill="none" rx="14" stroke="#4393c3" stroke-width="3"/>
		<line x1="9" y1="250" x2="159" y2="250" stroke="#4393c3" stroke-width="1.5"/>
		<text x="19" y="243.3" fill="#000" font-family="Arial Black" font-size="13">AJOUTER_EN_AMI</text>
	</g>
</g>

<!-- Association CREER -->
<g>
	<line x1="374" y1="90" x2="374" y2="251" stroke="#4393c3" stroke-width="1.5"/>
	<text x="380" y="188" fill="#b2182b" font-family="Arial" font-size="12">1,1</text>
	<line x1="233" y1="251" x2="374" y2="251" stroke="#4393c3" stroke-width="1.5"/>
	<text x="280" y="268" fill="#b2182b" font-family="Arial" font-size="12">0,N</text>
	<g>
		<path d="M394 223 a14 14 90 0 1 14 14 V250 h-68 V237 a14 14 90 0 1 14 -14" fill="#92c5de" stroke="#92c5de" stroke-width="0"/>
		<path d="M408 250 v15 a14 14 90 0 1 -14 14 H354 a14 14 90 0 1 -14 -14 V250 H68" fill="#d1e5f0" stroke="#d1e5f0" stroke-width="0"/>
		<rect x="340" y="223" width="68" height="56" fill="none" rx="14" stroke="#4393c3" stroke-width="3"/>
		<line x1="340" y1="250" x2="408" y2="250" stroke="#4393c3" stroke-width="1.5"/>
		<text x="349" y="243.3" fill="#000" font-family="Arial Black" font-size="13">CREER</text>
	</g>
</g>

<!-- Association DETENIR -->
<g>
	<line x1="374" y1="359" x2="483" y2="251" stroke="#4393c3" stroke-width="1.5"/>
	<text x="413" y="334.87" fill="#b2182b" font-family="Arial" font-size="12">0,N</text>
	<line x1="591" y1="251" x2="483" y2="251" stroke="#4393c3" stroke-width="1.5"/>
	<text x="531" y="268" fill="#b2182b" font-family="Arial" font-size="12">1,N</text>
	<g>
		<path d="M511 223 a14 14 90 0 1 14 14 V250 h-84 V237 a14 14 90 0 1 14 -14" fill="#92c5de" stroke="#92c5de" stroke-width="0"/>
		<path d="M525 250 v15 a14 14 90 0 1 -14 14 H455 a14 14 90 0 1 -14 -14 V250 H84" fill="#d1e5f0" stroke="#d1e5f0" stroke-width="0"/>
		<rect x="441" y="223" width="84" height="56" fill="none" rx="14" stroke="#4393c3" stroke-width="3"/>
		<line x1="441" y1="250" x2="525" y2="250" stroke="#4393c3" stroke-width="1.5"/>
		<text x="451" y="243.3" fill="#000" font-family="Arial Black" font-size="13">DETENIR</text>
	</g>
</g>

<!-- Association POSSEDER -->
<g>
	<line x1="84" y1="458" x2="84" y2="359" stroke="#4393c3" stroke-width="1.5"/>
	<text x="90" y="404" fill="#b2182b" font-family="Arial" font-size="12">0,N</text>
	<path d="M233 251 C230.69 300.42 181.02 336.42 84 359" fill="none" stroke="#4393c3" stroke-width="1.5"/>
	<text x="168" y="314.59" fill="#b2182b" font-family="Arial" font-size="12">1,1</text>
	<g>
		<path d="M119 331 a14 14 90 0 1 14 14 V358 h-98 V345 a14 14 90 0 1 14 -14" fill="#92c5de" stroke="#92c5de" stroke-width="0"/>
		<path d="M133 358 v15 a14 14 90 0 1 -14 14 H49 a14 14 90 0 1 -14 -14 V358 H98" fill="#d1e5f0" stroke="#d1e5f0" stroke-width="0"/>
		<rect x="35" y="331" width="98" height="56" fill="none" rx="14" stroke="#4393c3" stroke-width="3"/>
		<line x1="35" y1="358" x2="133" y2="358" stroke="#4393c3" stroke-width="1.5"/>
		<text x="45" y="351.3" fill="#000" font-family="Arial Black" font-size="13">POSSEDER</text>
	</g>
</g>

<!-- Association AVOIR -->
<g>
	<line x1="374" y1="359" x2="233" y2="359" stroke="#4393c3" stroke-width="1.5"/>
	<text x="317" y="376" fill="#b2182b" font-family="Arial" font-size="12">0,1</text>
	<line x1="233" y1="251" x2="233" y2="359" stroke="#4393c3" stroke-width="1.5"/>
	<text x="239" y="322" fill="#b2182b" font-family="Arial" font-size="12">0,1</text>
	<g>
		<path d="M252 331 a14 14 90 0 1 14 14 V358 h-66 V345 a14 14 90 0 1 14 -14" fill="#92c5de" stroke="#92c5de" stroke-width="0"/>
		<path d="M266 358 v15 a14 14 90 0 1 -14 14 H214 a14 14 90 0 1 -14 -14 V358 H66" fill="#d1e5f0" stroke="#d1e5f0" stroke-width="0"/>
		<rect x="200" y="331" width="66" height="56" fill="none" rx="14" stroke="#4393c3" stroke-width="3"/>
		<line x1="200" y1="358" x2="266" y2="358" stroke="#4393c3" stroke-width="1.5"/>
		<text x="210" y="351.3" fill="#000" font-family="Arial Black" font-size="13">AVOIR</text>
	</g>
</g>

<!-- Association POSSEDER2 -->
<g>
	<line x1="591" y1="251" x2="591" y2="458" stroke="#4393c3" stroke-width="1.5"/>
	<text x="597" y="304" fill="#b2182b" font-family="Arial" font-size="12">1,N</text>
	<line x1="84" y1="458" x2="591" y2="458" stroke="#4393c3" stroke-width="1.5"/>
	<text x="132" y="475" fill="#b2182b" font-family="Arial" font-size="12">0,N</text>
	<g>
		<path d="M626 430 a14 14 90 0 1 14 14 V457 h-98 V444 a14 14 90 0 1 14 -14" fill="#92c5de" stroke="#92c5de" stroke-width="0"/>
		<path d="M640 457 v15 a14 14 90 0 1 -14 14 H556 a14 14 90 0 1 -14 -14 V457 H98" fill="#d1e5f0" stroke="#d1e5f0" stroke-width="0"/>
		<rect x="542" y="430" width="98" height="56" fill="none" rx="14" stroke="#4393c3" stroke-width="3"/>
		<line x1="542" y1="457" x2="640" y2="457" stroke="#4393c3" stroke-width="1.5"/>
		<text x="552" y="450.3" fill="#000" font-family="Arial Black" font-size="13">POSSEDER</text>
	</g>
</g>

<!-- Entity EVENT -->
<g>
	<g>
		<rect x="301" y="9" width="146" height="28" fill="#f4a582" stroke="#f4a582" stroke-width="0" opacity="1"/>
		<rect x="301" y="37" width="146" height="134" fill="#fddbc7" stroke="#fddbc7" stroke-width="0" opacity="1"/>
		<rect x="301" y="9" width="146" height="162" fill="none" stroke="#d6604d" stroke-width="3" opacity="1"/>
		<line x1="301" y1="37" x2="447" y2="37" stroke="#d6604d" stroke-width="1.5"/>
	</g>
	<text x="349" y="29.3" fill="#000" font-family="Arial Black" font-size="13">EVENT</text>
	<text x="309" y="53.2" fill="#000" font-family="Arial" font-size="14">ref</text>
	<line x1="309" y1="56" x2="327" y2="56" stroke="#000" stroke-width="1.2"/>
	<text x="309" y="71.2" fill="#000" font-family="Arial" font-size="14">date</text>
	<text x="309" y="89.2" fill="#000" font-family="Arial" font-size="14">location</text>
	<text x="309" y="107.2" fill="#000" font-family="Arial" font-size="14">duration</text>
	<text x="309" y="125.2" fill="#000" font-family="Arial" font-size="14">nb_team</text>
	<text x="309" y="143.2" fill="#000" font-family="Arial" font-size="14">nb_max_participant</text>
	<text x="309" y="161.2" fill="#000" font-family="Arial" font-size="14">status</text>
</g>

<!-- Entity USER -->
<g>
	<g>
		<rect x="192" y="197" width="82" height="28" fill="#f4a582" stroke="#f4a582" stroke-width="0" opacity="1"/>
		<rect x="192" y="225" width="82" height="80" fill="#fddbc7" stroke="#fddbc7" stroke-width="0" opacity="1"/>
		<rect x="192" y="197" width="82" height="108" fill="none" stroke="#d6604d" stroke-width="3" opacity="1"/>
		<line x1="192" y1="225" x2="274" y2="225" stroke="#d6604d" stroke-width="1.5"/>
	</g>
	<text x="213" y="217.3" fill="#000" font-family="Arial Black" font-size="13">USER</text>
	<text x="200" y="241.2" fill="#000" font-family="Arial" font-size="14">ref</text>
	<line x1="200" y1="244" x2="218" y2="244" stroke="#000" stroke-width="1.2"/>
	<text x="200" y="259.2" fill="#000" font-family="Arial" font-size="14">username</text>
	<text x="200" y="277.2" fill="#000" font-family="Arial" font-size="14">email</text>
	<text x="200" y="295.2" fill="#000" font-family="Arial" font-size="14">password</text>
</g>

<!-- Entity SPORT -->
<g>
	<g>
		<rect x="558" y="215" width="66" height="28" fill="#f4a582" stroke="#f4a582" stroke-width="0" opacity="1"/>
		<rect x="558" y="243" width="66" height="44" fill="#fddbc7" stroke="#fddbc7" stroke-width="0" opacity="1"/>
		<rect x="558" y="215" width="66" height="72" fill="none" stroke="#d6604d" stroke-width="3" opacity="1"/>
		<line x1="558" y1="243" x2="624" y2="243" stroke="#d6604d" stroke-width="1.5"/>
	</g>
	<text x="566" y="235.3" fill="#000" font-family="Arial Black" font-size="13">SPORT</text>
	<text x="566" y="259.2" fill="#000" font-family="Arial" font-size="14">ref</text>
	<line x1="566" y1="262" x2="584" y2="262" stroke="#000" stroke-width="1.2"/>
	<text x="566" y="277.2" fill="#000" font-family="Arial" font-size="14">name</text>
</g>

<!-- Entity IMAGE -->
<g>
	<g>
		<rect x="341" y="314" width="66" height="28" fill="#f4a582" stroke="#f4a582" stroke-width="0" opacity="1"/>
		<rect x="341" y="342" width="66" height="62" fill="#fddbc7" stroke="#fddbc7" stroke-width="0" opacity="1"/>
		<rect x="341" y="314" width="66" height="90" fill="none" stroke="#d6604d" stroke-width="3" opacity="1"/>
		<line x1="341" y1="342" x2="407" y2="342" stroke="#d6604d" stroke-width="1.5"/>
	</g>
	<text x="350" y="334.3" fill="#000" font-family="Arial Black" font-size="13">IMAGE</text>
	<text x="349" y="358.2" fill="#000" font-family="Arial" font-size="14">ref</text>
	<line x1="349" y1="361" x2="367" y2="361" stroke="#000" stroke-width="1.2"/>
	<text x="349" y="376.2" fill="#000" font-family="Arial" font-size="14">url</text>
	<text x="349" y="394.2" fill="#000" font-family="Arial" font-size="14">key</text>
</g>

<!-- Entity LEVEL -->
<g>
	<g>
		<rect x="42" y="413" width="84" height="28" fill="#f4a582" stroke="#f4a582" stroke-width="0" opacity="1"/>
		<rect x="42" y="441" width="84" height="62" fill="#fddbc7" stroke="#fddbc7" stroke-width="0" opacity="1"/>
		<rect x="42" y="413" width="84" height="90" fill="none" stroke="#d6604d" stroke-width="3" opacity="1"/>
		<line x1="42" y1="441" x2="126" y2="441" stroke="#d6604d" stroke-width="1.5"/>
	</g>
	<text x="61" y="433.3" fill="#000" font-family="Arial Black" font-size="13">LEVEL</text>
	<text x="50" y="457.2" fill="#000" font-family="Arial" font-size="14">ref</text>
	<line x1="50" y1="460" x2="68" y2="460" stroke="#000" stroke-width="1.2"/>
	<text x="50" y="475.2" fill="#000" font-family="Arial" font-size="14">rating</text>
	<text x="50" y="493.2" fill="#000" font-family="Arial" font-size="14">nb_review</text>
</g>
</svg>