<?xml version="1.0" encoding="utf-8"?>
<svg width="649" height="494" viewBox="0 0 649 494" xmlns="http://www.w3.org/2000/svg">
<rect id="frame" x="0" y="0" width="649" height="494" fill="#f7f7f7" stroke="none" stroke-width="0"/>

<!-- Association JOUER -->
<g>
	<line x1="341" y1="81" x2="233" y2="81" stroke="#4393c3" stroke-width="1.5"/>
	<text x="277" y="98" fill="#b2182b" font-family="Arial" font-size="12">1,N</text>
	<line x1="233" y1="233" x2="233" y2="81" stroke="#4393c3" stroke-width="1.5"/>
	<text x="239" y="170" fill="#b2182b" font-family="Arial" font-size="12">0,N</text>
	<g>
		<path d="M254 53 a14 14 90 0 1 14 14 V80 h-70 V67 a14 14 90 0 1 14 -14" fill="#92c5de" stroke="#92c5de" stroke-width="0"/>
		<path d="M268 80 v15 a14 14 90 0 1 -14 14 H212 a14 14 90 0 1 -14 -14 V80 H70" fill="#d1e5f0" stroke="#d1e5f0" stroke-width="0"/>
		<rect x="198" y="53" width="70" height="56" fill="none" rx="14" stroke="#4393c3" stroke-width="3"/>
		<line x1="198" y1="80" x2="268" y2="80" stroke="#4393c3" stroke-width="1.5"/>
		<text x="208" y="73.3" fill="#000" font-family="Arial Black" font-size="13">JOUER</text>
	</g>
</g>

<!-- Association AVOIR2 -->
<g>
	<line x1="341" y1="81" x2="558" y2="81" stroke="#4393c3" stroke-width="1.5"/>
	<text x="384" y="98" fill="#b2182b" font-family="Arial" font-size="12">1,1</text>
	<line x1="558" y1="233" x2="558" y2="81" stroke="#4393c3" stroke-width="1.5"/>
	<text x="564" y="188" fill="#b2182b" font-family="Arial" font-size="12">0,N</text>
	<g>
		<path d="M577 53 a14 14 90 0 1 14 14 V80 h-66 V67 a14 14 90 0 1 14 -14" fill="#92c5de" stroke="#92c5de" stroke-width="0"/>
		<path d="M591 80 v15 a14 14 90 0 1 -14 14 H539 a14 14 90 0 1 -14 -14 V80 H66" fill="#d1e5f0" stroke="#d1e5f0" stroke-width="0"/>
		<rect x="525" y="53" width="66" height="56" fill="none" rx="14" stroke="#4393c3" stroke-width="3"/>
		<line x1="525" y1="80" x2="591" y2="80" stroke="#4393c3" stroke-width="1.5"/>
		<text x="535" y="73.3" fill="#000" font-family="Arial Black" font-size="13">AVOIR</text>
	</g>
</g>

<!-- Association AJOUTER_EN_AMI -->
<g>
	<path d="M233 233 C206 267.67 156.33 267.67 84 233" fill="none" stroke="#4393c3" stroke-width="1.5"/>
	<text x="165" y="249" fill="#b2182b" font-family="Arial" font-size="12">0,N</text>
	<path d="M233 233 C206 198.33 156.33 198.33 84 233" fill="none" stroke="#4393c3" stroke-width="1.5"/>
	<text x="165" y="225" fill="#b2182b" font-family="Arial" font-size="12">0,N</text>
	<g>
		<path d="M145 205 a14 14 90 0 1 14 14 V232 h-150 V219 a14 14 90 0 1 14 -14" fill="#92c5de" stroke="#92c5de" stroke-width="0"/>
		<path d="M159 232 v15 a14 14 90 0 1 -14 14 H23 a14 14 90 0 1 -14 -14 V232 H150" fill="#d1e5f0" stroke="#d1e5f0" stroke-width="0"/>
		<rect x="9" y="205" width="150" height="56" fill="none" rx="14" stroke="#4393c3" stroke-width="3"/>
		<line x1="9" y1="232" x2="159" y2="232" stroke="#4393c3" stroke-width="1.5"/>
		<text x="19" y="225.3" fill="#000" font-family="Arial Black" font-size="13">AJOUTER_EN_AMI</text>
	</g>
</g>

<!-- Association CREER -->
<g>
	<line x1="341" y1="81" x2="341" y2="233" stroke="#4393c3" stroke-width="1.5"/>
	<text x="347" y="170" fill="#b2182b" font-family="Arial" font-size="12">1,1</text>
	<line x1="233" y1="233" x2="341" y2="233" stroke="#4393c3" stroke-width="1.5"/>
	<text x="280" y="250" fill="#b2182b" font-family="Arial" font-size="12">0,N</text>
	<g>
		<path d="M361 205 a14 14 90 0 1 14 14 V232 h-68 V219 a14 14 90 0 1 14 -14" fill="#92c5de" stroke="#92c5de" stroke-width="0"/>
		<path d="M375 232 v15 a14 14 90 0 1 -14 14 H321 a14 14 90 0 1 -14 -14 V232 H68" fill="#d1e5f0" stroke="#d1e5f0" stroke-width="0"/>
		<rect x="307" y="205" width="68" height="56" fill="none" rx="14" stroke="#4393c3" stroke-width="3"/>
		<line x1="307" y1="232" x2="375" y2="232" stroke="#4393c3" stroke-width="1.5"/>
		<text x="316" y="225.3" fill="#000" font-family="Arial Black" font-size="13">CREER</text>
	</g>
</g>

<!-- Association DETENIR -->
<g>
	<line x1="341" y1="341" x2="450" y2="233" stroke="#4393c3" stroke-width="1.5"/>
	<text x="380" y="316.87" fill="#b2182b" font-family="Arial" font-size="12">0,N</text>
	<line x1="558" y1="233" x2="450" y2="233" stroke="#4393c3" stroke-width="1.5"/>
	<text x="498" y="250" fill="#b2182b" font-family="Arial" font-size="12">1,N</text>
	<g>
		<path d="M478 205 a14 14 90 0 1 14 14 V232 h-84 V219 a14 14 90 0 1 14 -14" fill="#92c5de" stroke="#92c5de" stroke-width="0"/>
		<path d="M492 232 v15 a14 14 90 0 1 -14 14 H422 a14 14 90 0 1 -14 -14 V232 H84" fill="#d1e5f0" stroke="#d1e5f0" stroke-width="0"/>
		<rect x="408" y="205" width="84" height="56" fill="none" rx="14" stroke="#4393c3" stroke-width="3"/>
		<line x1="408" y1="232" x2="492" y2="232" stroke="#4393c3" stroke-width="1.5"/>
		<text x="418" y="225.3" fill="#000" font-family="Arial Black" font-size="13">DETENIR</text>
	</g>
</g>

<!-- Association POSSEDER -->
<g>
	<line x1="84" y1="440" x2="84" y2="341" stroke="#4393c3" stroke-width="1.5"/>
	<text x="90" y="386" fill="#b2182b" font-family="Arial" font-size="12">0,N</text>
	<path d="M233 233 C230.69 282.42 181.02 318.42 84 341" fill="none" stroke="#4393c3" stroke-width="1.5"/>
	<text x="168" y="296.59" fill="#b2182b" font-family="Arial" font-size="12">1,1</text>
	<g>
		<path d="M119 313 a14 14 90 0 1 14 14 V340 h-98 V327 a14 14 90 0 1 14 -14" fill="#92c5de" stroke="#92c5de" stroke-width="0"/>
		<path d="M133 340 v15 a14 14 90 0 1 -14 14 H49 a14 14 90 0 1 -14 -14 V340 H98" fill="#d1e5f0" stroke="#d1e5f0" stroke-width="0"/>
		<rect x="35" y="313" width="98" height="56" fill="none" rx="14" stroke="#4393c3" stroke-width="3"/>
		<line x1="35" y1="340" x2="133" y2="340" stroke="#4393c3" stroke-width="1.5"/>
		<text x="45" y="333.3" fill="#000" font-family="Arial Black" font-size="13">POSSEDER</text>
	</g>
</g>

<!-- Association AVOIR -->
<g>
	<line x1="341" y1="341" x2="233" y2="341" stroke="#4393c3" stroke-width="1.5"/>
	<text x="284" y="358" fill="#b2182b" font-family="Arial" font-size="12">0,1</text>
	<line x1="233" y1="233" x2="233" y2="341" stroke="#4393c3" stroke-width="1.5"/>
	<text x="239" y="304" fill="#b2182b" font-family="Arial" font-size="12">0,1</text>
	<g>
		<path d="M252 313 a14 14 90 0 1 14 14 V340 h-66 V327 a14 14 90 0 1 14 -14" fill="#92c5de" stroke="#92c5de" stroke-width="0"/>
		<path d="M266 340 v15 a14 14 90 0 1 -14 14 H214 a14 14 90 0 1 -14 -14 V340 H66" fill="#d1e5f0" stroke="#d1e5f0" stroke-width="0"/>
		<rect x="200" y="313" width="66" height="56" fill="none" rx="14" stroke="#4393c3" stroke-width="3"/>
		<line x1="200" y1="340" x2="266" y2="340" stroke="#4393c3" stroke-width="1.5"/>
		<text x="210" y="333.3" fill="#000" font-family="Arial Black" font-size="13">AVOIR</text>
	</g>
</g>

<!-- Association POSSEDER2 -->
<g>
	<line x1="558" y1="233" x2="558" y2="440" stroke="#4393c3" stroke-width="1.5"/>
	<text x="564" y="286" fill="#b2182b" font-family="Arial" font-size="12">1,N</text>
	<line x1="84" y1="440" x2="558" y2="440" stroke="#4393c3" stroke-width="1.5"/>
	<text x="132" y="457" fill="#b2182b" font-family="Arial" font-size="12">0,N</text>
	<g>
		<path d="M593 412 a14 14 90 0 1 14 14 V439 h-98 V426 a14 14 90 0 1 14 -14" fill="#92c5de" stroke="#92c5de" stroke-width="0"/>
		<path d="M607 439 v15 a14 14 90 0 1 -14 14 H523 a14 14 90 0 1 -14 -14 V439 H98" fill="#d1e5f0" stroke="#d1e5f0" stroke-width="0"/>
		<rect x="509" y="412" width="98" height="56" fill="none" rx="14" stroke="#4393c3" stroke-width="3"/>
		<line x1="509" y1="439" x2="607" y2="439" stroke="#4393c3" stroke-width="1.5"/>
		<text x="519" y="432.3" fill="#000" font-family="Arial Black" font-size="13">POSSEDER</text>
	</g>
</g>

<!-- Entity EVENT -->
<g>
	<g>
		<rect x="304" y="9" width="74" height="28" fill="#f4a582" stroke="#f4a582" stroke-width="0" opacity="1"/>
		<rect x="304" y="37" width="74" height="116" fill="#fddbc7" stroke="#fddbc7" stroke-width="0" opacity="1"/>
		<rect x="304" y="9" width="74" height="144" fill="none" stroke="#d6604d" stroke-width="3" opacity="1"/>
		<line x1="304" y1="37" x2="378" y2="37" stroke="#d6604d" stroke-width="1.5"/>
	</g>
	<text x="316" y="29.3" fill="#000" font-family="Arial Black" font-size="13">EVENT</text>
	<text x="312" y="53.2" fill="#000" font-family="Arial" font-size="14">ref</text>
	<line x1="312" y1="56" x2="330" y2="56" stroke="#000" stroke-width="1.2"/>
	<text x="312" y="71.2" fill="#000" font-family="Arial" font-size="14">date</text>
	<text x="312" y="89.2" fill="#000" font-family="Arial" font-size="14">location</text>
	<text x="312" y="107.2" fill="#000" font-family="Arial" font-size="14">duration</text>
	<text x="312" y="125.2" fill="#000" font-family="Arial" font-size="14">nb_team</text>
	<text x="312" y="143.2" fill="#000" font-family="Arial" font-size="14">status</text>
</g>

<!-- Entity USER -->
<g>
	<g>
		<rect x="192" y="179" width="82" height="28" fill="#f4a582" stroke="#f4a582" stroke-width="0" opacity="1"/>
		<rect x="192" y="207" width="82" height="80" fill="#fddbc7" stroke="#fddbc7" stroke-width="0" opacity="1"/>
		<rect x="192" y="179" width="82" height="108" fill="none" stroke="#d6604d" stroke-width="3" opacity="1"/>
		<line x1="192" y1="207" x2="274" y2="207" stroke="#d6604d" stroke-width="1.5"/>
	</g>
	<text x="213" y="199.3" fill="#000" font-family="Arial Black" font-size="13">USER</text>
	<text x="200" y="223.2" fill="#000" font-family="Arial" font-size="14">ref</text>
	<line x1="200" y1="226" x2="218" y2="226" stroke="#000" stroke-width="1.2"/>
	<text x="200" y="241.2" fill="#000" font-family="Arial" font-size="14">username</text>
	<text x="200" y="259.2" fill="#000" font-family="Arial" font-size="14">email</text>
	<text x="200" y="277.2" fill="#000" font-family="Arial" font-size="14">password</text>
</g>

<!-- Entity SPORT -->
<g>
	<g>
		<rect x="525" y="197" width="66" height="28" fill="#f4a582" stroke="#f4a582" stroke-width="0" opacity="1"/>
		<rect x="525" y="225" width="66" height="44" fill="#fddbc7" stroke="#fddbc7" stroke-width="0" opacity="1"/>
		<rect x="525" y="197" width="66" height="72" fill="none" stroke="#d6604d" stroke-width="3" opacity="1"/>
		<line x1="525" y1="225" x2="591" y2="225" stroke="#d6604d" stroke-width="1.5"/>
	</g>
	<text x="533" y="217.3" fill="#000" font-family="Arial Black" font-size="13">SPORT</text>
	<text x="533" y="241.2" fill="#000" font-family="Arial" font-size="14">ref</text>
	<line x1="533" y1="244" x2="551" y2="244" stroke="#000" stroke-width="1.2"/>
	<text x="533" y="259.2" fill="#000" font-family="Arial" font-size="14">name</text>
</g>

<!-- Entity IMAGE -->
<g>
	<g>
		<rect x="308" y="287" width="66" height="28" fill="#f4a582" stroke="#f4a582" stroke-width="0" opacity="1"/>
		<rect x="308" y="315" width="66" height="80" fill="#fddbc7" stroke="#fddbc7" stroke-width="0" opacity="1"/>
		<rect x="308" y="287" width="66" height="108" fill="none" stroke="#d6604d" stroke-width="3" opacity="1"/>
		<line x1="308" y1="315" x2="374" y2="315" stroke="#d6604d" stroke-width="1.5"/>
	</g>
	<text x="317" y="307.3" fill="#000" font-family="Arial Black" font-size="13">IMAGE</text>
	<text x="316" y="331.2" fill="#000" font-family="Arial" font-size="14">ref</text>
	<line x1="316" y1="334" x2="334" y2="334" stroke="#000" stroke-width="1.2"/>
	<text x="316" y="349.2" fill="#000" font-family="Arial" font-size="14">url</text>
	<text x="316" y="367.2" fill="#000" font-family="Arial" font-size="14">key</text>
	<text x="316" y="385.2" fill="#000" font-family="Arial" font-size="14">size</text>
</g>

<!-- Entity LEVEL -->
<g>
	<g>
		<rect x="42" y="395" width="84" height="28" fill="#f4a582" stroke="#f4a582" stroke-width="0" opacity="1"/>
		<rect x="42" y="423" width="84" height="62" fill="#fddbc7" stroke="#fddbc7" stroke-width="0" opacity="1"/>
		<rect x="42" y="395" width="84" height="90" fill="none" stroke="#d6604d" stroke-width="3" opacity="1"/>
		<line x1="42" y1="423" x2="126" y2="423" stroke="#d6604d" stroke-width="1.5"/>
	</g>
	<text x="61" y="415.3" fill="#000" font-family="Arial Black" font-size="13">LEVEL</text>
	<text x="50" y="439.2" fill="#000" font-family="Arial" font-size="14">ref</text>
	<line x1="50" y1="442" x2="68" y2="442" stroke="#000" stroke-width="1.2"/>
	<text x="50" y="457.2" fill="#000" font-family="Arial" font-size="14">rating</text>
	<text x="50" y="475.2" fill="#000" font-family="Arial" font-size="14">nb_review</text>
</g>
</svg>